# xmcd
#
# Track frame offsets:
#	150
#	10100
#	21687
#	35325
#	52575
#	66725
#	76875
#	87975
#	104662
#	118975
#	130925
#	144275
#	151975
#	163550
#	177200
#	191187
#	205800
#	225650
#	241750
#	252300
#	267425
#	283450
#	294900
#	304000
#
# Disc length: 4226
#
# Revision: 2
# Processed by: cddbd v1.5.1PL0 Copyright (c) Steve Scherf et al.
# Submitted via: audiograbber 1.80
# Normalized: r1:DSETVAR1
#
DISCID=5b108018
DTITLE=Various Artist - Wanted - Country Gospel
DYEAR=1900
DGENRE=
TTITLE0=JIM REEVES - Softly and Tenderly
TTITLE1=PORTER WAGONER - What Would You Do If Jesus Came To Your House
TTITLE2=JEANNIE SEELY - One day At A Time
TTITLE3=KENNY PRICE - Steal Away
TTITLE4=SANDY POSEY - Put Your Hand In The Hand
TTITLE5=FRANKIE LAINE - I Believe
TTITLE6=NED MILLER - Will the Circle Be Unbroken
TTITLE7=SKEETER DAVIS - Oh Happy Day
TTITLE8=KENNY PRICE - Peace In The valley
TTITLE9=JEANNE PRUETT - Swing Low, Sweet Chariot
TTITLE10=BOBBY HELMS - What A Friend We Have In Jesus
TTITLE11=STONEWALL JACKSON - Mary Don't You Weep
TTITLE12=BILL PHILLIPS - I Saw The Light
TTITLE13=WARNER MACK - Amazing Grace
TTITLE14=SUSAN RAYE - You Can't Be A Beacon
TTITLE15=GEORGE JONES - Family Bible
TTITLE16=FERLIN HUSKY - Just A Closer Walk With Thee
TTITLE17=MARION WORTH - How Great Thou Art
TTITLE18=FERLIN HUSKY - The Wings Of A Dove
TTITLE19=JACK GREENE - Why Me Lord
TTITLE20=BILL PHILLIPS - The Old Rugged Cross
TTITLE21=MARION WORTH - Crying In The Chapel
TTITLE22=PAT BOONE - A Wonderful Time Up There
TTITLE23=OAK RIDGE BOYS - The Old Country Church
EXTD=
EXTT0=
EXTT1=
EXTT2=
EXTT3=
EXTT4=
EXTT5=
EXTT6=
EXTT7=
EXTT8=
EXTT9=
EXTT10=
EXTT11=
EXTT12=
EXTT13=
EXTT14=
EXTT15=
EXTT16=
EXTT17=
EXTT18=
EXTT19=
EXTT20=
EXTT21=
EXTT22=
EXTT23=
PLAYORDER=
